<svg width="84" height="38" viewBox="0 0 84 38" fill="none" xmlns="http://www.w3.org/2000/svg">
<path d="M-0.000303602 23.7214L5.76939 30.4185L8.68439 22.0733L-0.000303602 23.7214ZM69.2678 1.31581C75.4214 6.85357 79.4691 12.8039 80.9064 18.1461C82.3321 23.4446 81.194 28.0997 77.0254 31.3253C72.7823 34.6085 65.2689 36.5182 53.7071 35.8688C42.1708 35.221 26.7233 32.0316 6.74157 25.2655L6.25051 26.7157C26.3071 33.5072 41.8983 36.7392 53.6212 37.3975C65.3187 38.0545 73.2851 36.1553 77.9624 32.5362C82.7143 28.8593 83.9374 23.5182 82.385 17.7483C80.8443 12.0221 76.5747 5.83167 70.292 0.177718L69.2678 1.31581Z" fill="#739C6A"/>
</svg>
