<svg width="57" height="57" viewBox="0 0 57 57" fill="none" xmlns="http://www.w3.org/2000/svg">
<g clip-path="url(#clip0_171_5015)">
<path fill-rule="evenodd" clip-rule="evenodd" d="M28.4375 0C12.7329 0 0 12.7329 0 28.4375C0 44.1421 12.7329 56.875 28.4375 56.875C44.1421 56.875 56.875 44.1421 56.875 28.4375C56.875 12.7329 44.1421 0 28.4375 0ZM28.4375 4.73958C41.5045 4.73958 52.1354 15.3705 52.1354 28.4375C52.1354 41.5045 41.5045 52.1354 28.4375 52.1354C15.3705 52.1354 4.73958 41.5045 4.73958 28.4375C4.73958 15.3705 15.3705 4.73958 28.4375 4.73958ZM34.817 40.0234C35.1985 40.2959 35.6891 40.3623 36.1275 40.1964C36.5659 40.0305 36.8905 39.6561 36.9853 39.2011C38.0162 34.362 40.514 22.1125 41.45 17.7118C41.5211 17.3801 41.405 17.0364 41.1443 16.8137C40.8836 16.5933 40.5211 16.5293 40.1988 16.6478C35.2317 18.4867 19.9299 24.2264 13.6761 26.5417C13.2779 26.6886 13.0196 27.0701 13.0339 27.4896C13.0481 27.909 13.3301 28.2716 13.7353 28.3925C16.5411 29.2314 20.2238 30.3997 20.2238 30.3997C20.2238 30.3997 21.9419 35.5966 22.8401 38.239C22.9514 38.5684 23.2121 38.8314 23.5534 38.9191C23.897 39.0091 24.2596 38.9167 24.5155 38.675C25.9563 37.3147 28.1839 35.2127 28.1839 35.2127C28.1839 35.2127 32.4164 38.3148 34.817 40.0234V40.0234ZM21.7713 29.7433L23.7619 36.3052L24.2027 32.1486C24.2027 32.1486 31.8879 25.217 36.2697 21.2641C36.4 21.1504 36.4166 20.9561 36.3099 20.8186C36.2033 20.6835 36.0114 20.6504 35.8644 20.7428C30.786 23.9847 21.7713 29.7433 21.7713 29.7433V29.7433Z" fill="#EFEFEF"/>
</g>
<defs>
<clipPath id="clip0_171_5015">
<rect width="56.875" height="56.875" fill="white"/>
</clipPath>
</defs>
</svg>
