<svg width="57" height="57" viewBox="0 0 57 57" fill="none" xmlns="http://www.w3.org/2000/svg">
<g clip-path="url(#clip0_171_5018)">
<path d="M28.5625 4.73958C41.6295 4.73958 52.2604 15.3705 52.2604 28.4375C52.2604 41.5045 41.6295 52.1354 28.5625 52.1354C15.4955 52.1354 4.86458 41.5045 4.86458 28.4375C4.86458 15.3705 15.4955 4.73958 28.5625 4.73958ZM28.5625 0C12.8579 0 0.125 12.7329 0.125 28.4375C0.125 44.1421 12.8579 56.875 28.5625 56.875C44.2671 56.875 57 44.1421 57 28.4375C57 12.7329 44.2671 0 28.5625 0ZM29.9394 37.9096C30.6598 37.9096 30.956 37.4261 30.9465 36.8242C30.9086 34.5539 31.7902 33.3311 33.3874 34.9236C35.1505 36.6867 35.5107 37.9096 37.6554 37.9096H41.4494C42.4045 37.9096 42.7812 37.6015 42.7812 37.118C42.7812 36.0943 41.0963 34.2885 39.6721 32.9662C37.672 31.1106 37.5819 31.0656 39.3024 28.8333C41.4352 26.063 44.2292 22.513 41.7599 22.513H37.0416C36.1245 22.513 36.0605 23.0273 35.7359 23.7974C34.5557 26.5772 32.3162 30.1793 31.4631 29.6295C30.5697 29.0536 30.9797 26.7786 31.0484 23.397C31.0674 22.5035 31.0626 21.8898 29.6953 21.5722C28.9511 21.3992 28.2236 21.3281 27.5553 21.3281C24.8609 21.3281 23.0006 22.4585 24.0552 22.6552C25.9154 23.0012 25.7401 27.0298 25.304 28.7693C24.5481 31.7979 21.7067 26.371 20.5218 23.6695C20.2374 23.0178 20.1545 22.513 19.1331 22.513H15.2774C14.6921 22.513 14.3438 22.7026 14.3438 23.1244C14.3438 23.8377 17.8487 31.0869 21.1972 34.7009C24.4651 38.2247 27.6952 37.9096 29.9394 37.9096Z" fill="#EFEFEF"/>
</g>
<defs>
<clipPath id="clip0_171_5018">
<rect width="56.875" height="56.875" fill="white" transform="translate(0.125)"/>
</clipPath>
</defs>
</svg>
