<svg width="154" height="115" viewBox="0 0 154 115" fill="none" xmlns="http://www.w3.org/2000/svg">
<g clip-path="url(#clip0_319_25)">
<path d="M95.7011 -0.000976562C75.6551 -0.000976562 57.5 16.2488 57.5 36.2996C57.5 56.3456 74.0649 80.2785 95.7011 114.602C117.337 80.2785 133.902 56.3456 133.902 36.2996C133.902 16.2488 115.752 -0.000976562 95.7011 -0.000976562ZM95.7011 52.5255C87.7887 52.5255 81.3757 46.1125 81.3757 38.2001C81.3757 30.2877 87.7887 23.8747 95.7011 23.8747C103.613 23.8747 110.026 30.2877 110.026 38.2001C110.026 46.1125 103.613 52.5255 95.7011 52.5255Z" fill="white"/>
</g>
<g clip-path="url(#clip1_319_25)">
<path d="M57.3007 9.54929C72.562 9.54929 85.9515 22.0506 85.9515 36.2996C85.9515 51.0691 74.0471 70.3558 57.3007 96.7575C40.5543 70.3558 28.6499 51.0691 28.6499 36.2996C28.6499 22.0506 42.0393 9.54929 57.3007 9.54929ZM57.3007 -0.000976562C37.2547 -0.000976562 19.0996 16.2488 19.0996 36.2996C19.0996 56.3456 35.6645 80.2785 57.3007 114.602C78.9368 80.2785 95.5017 56.3456 95.5017 36.2996C95.5017 16.2488 77.3514 -0.000976562 57.3007 -0.000976562V-0.000976562ZM57.3007 52.5255C49.3883 52.5255 42.9753 46.1125 42.9753 38.2001C42.9753 30.2877 49.3883 23.8747 57.3007 23.8747C65.2131 23.8747 71.6261 30.2877 71.6261 38.2001C71.6261 46.1125 65.2131 52.5255 57.3007 52.5255Z" fill="#628E58"/>
</g>
<defs>
<clipPath id="clip0_319_25">
<rect width="114.603" height="114.603" fill="white" transform="translate(38.3984)"/>
</clipPath>
<clipPath id="clip1_319_25">
<rect width="114.603" height="114.603" fill="white"/>
</clipPath>
</defs>
</svg>
